<svg width="318" height="66" viewBox="0 0 318 66" version="1.1" xmlns="http://www.w3.org/2000/svg" xmlns:xlink="http://www.w3.org/1999/xlink">
<title>Bella Door</title>
<desc>Created using Figma</desc>
<g id="Canvas" transform="translate(-202 -190)">
<g id="Bella Door">
<use xlink:href="#path0_fill" transform="translate(202 190)" fill="#FFFFFF"/>
<use xlink:href="#path1_fill" transform="translate(202 190)" fill="#FFFFFF"/>
<use xlink:href="#path2_fill" transform="translate(202 190)" fill="#FFFFFF"/>
<use xlink:href="#path3_fill" transform="translate(202 190)" fill="#FFFFFF"/>
<use xlink:href="#path4_fill" transform="translate(202 190)" fill="#FFFFFF"/>
<use xlink:href="#path5_fill" transform="translate(202 190)" fill="#FFFFFF"/>
<use xlink:href="#path6_fill" transform="translate(202 190)" fill="#FFFFFF"/>
<use xlink:href="#path7_fill" transform="translate(202 190)" fill="#FFFFFF"/>
<use xlink:href="#path8_fill" transform="translate(202 190)" fill="#FFFFFF"/>
</g>
</g>
<defs>
<path id="path0_fill" d="M 56.3643 19.9402C 56.3643 23.7067 55.035 26.9636 52.3763 29.7109C 49.7176 32.4139 45.8403 34.3636 40.7445 35.5601C 43.4918 36.3133 45.5745 37.5541 46.9924 39.2822C 48.4104 40.9661 49.1194 42.9158 49.1194 45.1314C 49.1194 48.632 48.0116 51.6673 45.796 54.2374C 43.6248 56.8075 40.4343 58.8015 36.2247 60.2195C 32.0151 61.5931 26.9414 62.2799 21.0037 62.2799C 18.7881 62.2799 17.0156 62.2135 15.6863 62.0805C 15.642 63.3213 15.1103 64.2518 14.0911 64.8722C 13.0719 65.4925 11.7647 65.8027 10.1695 65.8027C 8.57429 65.8027 7.4665 65.4482 6.84614 64.7392C 6.27009 64.0302 6.02638 62.9889 6.115 61.6153C 6.5138 55.4116 7.28926 48.92 8.44136 42.1403C 9.59346 35.3163 11.0557 28.7361 12.8282 22.3995C 13.1384 21.2917 13.7587 20.5163 14.6893 20.0731C 15.6198 19.63 16.8384 19.4085 18.345 19.4085C 21.048 19.4085 22.3995 20.1618 22.3995 21.6684C 22.3995 22.2887 22.2666 22.9977 22.0007 23.7953C 20.8486 27.2516 19.6965 31.9487 18.5444 37.8864C 17.3923 43.7798 16.5725 49.4074 16.0851 54.7691C 18.2121 54.9464 19.9402 55.035 21.2696 55.035C 27.4732 55.035 32.0151 54.1488 34.8954 52.3763C 37.8199 50.5595 39.2822 48.2553 39.2822 45.4637C 39.2822 43.514 38.4403 41.8745 36.7565 40.5451C 35.1169 39.2158 32.3475 38.4846 28.448 38.3517C 27.5618 38.3074 26.9414 38.0858 26.587 37.687C 26.2325 37.2882 26.0552 36.6457 26.0552 35.7595C 26.0552 34.4744 26.3211 33.4331 26.8528 32.6355C 27.3846 31.8379 28.3594 31.4169 29.7774 31.3726C 32.9235 31.284 35.7594 30.8187 38.2852 29.9768C 40.8553 29.1349 42.8715 27.9606 44.3337 26.454C 45.796 24.9031 46.5272 23.1085 46.5272 21.0702C 46.5272 18.5001 45.2643 16.4839 42.7385 15.0216C 40.2128 13.515 36.3355 12.7617 31.1067 12.7617C 26.3654 12.7617 21.7791 13.3821 17.348 14.6228C 12.9168 15.8192 9.15034 17.348 6.04853 19.2091C 4.63056 20.051 3.43415 20.472 2.45929 20.472C 1.66168 20.472 1.04132 20.2061 0.598206 19.6743C 0.199402 19.0983 0 18.3893 0 17.5474C 0 16.4396 0.221558 15.4869 0.664674 14.6893C 1.1521 13.8917 2.28205 12.9833 4.05451 11.9641C 7.77668 9.83717 12.1414 8.17549 17.1486 6.97908C 22.1558 5.78266 27.2738 5.18446 32.5025 5.18446C 40.5229 5.18446 46.505 6.53596 50.4487 9.23897C 54.3925 11.942 56.3643 15.5091 56.3643 19.9402Z"/>
<path id="path1_fill" d="M 84.1472 47.6571C 84.7232 47.6571 85.1664 47.923 85.4765 48.4547C 85.831 48.9865 86.0083 49.7176 86.0083 50.6481C 86.0083 52.4206 85.5873 53.7943 84.7454 54.7691C 83.1059 56.7631 80.7795 58.6021 77.7663 60.2859C 74.7974 61.9698 71.607 62.8117 68.195 62.8117C 63.5423 62.8117 59.9309 61.5488 57.3608 59.023C 54.7908 56.4973 53.5057 53.041 53.5057 48.6541C 53.5057 45.5966 54.1482 42.7607 55.4333 40.1463C 56.7183 37.4876 58.4908 35.3828 60.7507 33.8319C 63.0549 32.281 65.6471 31.5055 68.5274 31.5055C 71.0974 31.5055 73.1579 32.281 74.7088 33.8319C 76.2597 35.3385 77.0352 37.399 77.0352 40.0134C 77.0352 43.0709 75.9274 45.7074 73.7118 47.923C 71.5405 50.0942 67.8405 51.8224 62.6118 53.1074C 63.7195 55.1458 65.8243 56.1649 68.9262 56.1649C 70.9202 56.1649 73.1801 55.4781 75.7058 54.1044C 78.2759 52.6865 80.4915 50.8475 82.3526 48.5877C 82.8843 47.9673 83.4825 47.6571 84.1472 47.6571ZM 67.3974 38.0193C 65.7579 38.0193 64.3621 38.972 63.21 40.8774C 62.1022 42.7828 61.5483 45.087 61.5483 47.79L 61.5483 47.923C 64.1627 47.3026 66.2231 46.3721 67.7297 45.1314C 69.2363 43.8906 69.9896 42.4505 69.9896 40.811C 69.9896 39.9691 69.7459 39.3044 69.2585 38.817C 68.8154 38.2852 68.195 38.0193 67.3974 38.0193Z"/>
<path id="path2_fill" d="M 105.788 47.6571C 106.364 47.6571 106.807 47.923 107.117 48.4547C 107.471 48.9865 107.649 49.7176 107.649 50.6481C 107.649 52.4206 107.228 53.7943 106.386 54.7691C 104.48 57.1176 102.398 59.0452 100.138 60.5518C 97.9222 62.0584 95.3965 62.8117 92.5605 62.8117C 88.6611 62.8117 85.7587 61.0392 83.8533 57.4943C 81.9922 53.9494 81.0617 49.3631 81.0617 43.7355C 81.0617 38.3295 81.7485 32.1702 83.1221 25.2576C 84.5401 18.345 86.6006 12.4072 89.3036 7.44435C 92.0509 2.48145 95.3078 0 99.0743 0C 101.201 0 102.863 0.99701 104.059 2.99103C 105.3 4.94074 105.92 7.75453 105.92 11.4324C 105.92 16.7055 104.458 22.8205 101.534 29.7774C 98.609 36.7343 94.6432 43.6248 89.6359 50.4487C 89.9461 52.2655 90.4557 53.5727 91.1647 54.3703C 91.8737 55.1236 92.8042 55.5003 93.9563 55.5003C 95.7731 55.5003 97.3683 54.9907 98.742 53.9715C 100.116 52.908 101.866 51.1134 103.993 48.5877C 104.525 47.9673 105.123 47.6571 105.788 47.6571ZM 97.612 6.58027C 96.5929 6.58027 95.4408 8.4192 94.1557 12.0971C 92.8707 15.7749 91.7407 20.339 90.7659 25.7893C 89.791 31.2397 89.2593 36.4684 89.1707 41.4756C 92.3168 36.2912 94.8204 31.1067 96.6815 25.9223C 98.5426 20.6935 99.4731 15.93 99.4731 11.6318C 99.4731 8.26411 98.8528 6.58027 97.612 6.58027Z"/>
<path id="path3_fill" d="M 127.467 47.6571C 128.043 47.6571 128.486 47.923 128.797 48.4547C 129.151 48.9865 129.328 49.7176 129.328 50.6481C 129.328 52.4206 128.907 53.7943 128.066 54.7691C 126.16 57.1176 124.077 59.0452 121.818 60.5518C 119.602 62.0584 117.076 62.8117 114.24 62.8117C 110.341 62.8117 107.438 61.0392 105.533 57.4943C 103.672 53.9494 102.741 49.3631 102.741 43.7355C 102.741 38.3295 103.428 32.1702 104.802 25.2576C 106.22 18.345 108.28 12.4072 110.983 7.44435C 113.731 2.48145 116.988 0 120.754 0C 122.881 0 124.543 0.99701 125.739 2.99103C 126.98 4.94074 127.6 7.75453 127.6 11.4324C 127.6 16.7055 126.138 22.8205 123.213 29.7774C 120.289 36.7343 116.323 43.6248 111.316 50.4487C 111.626 52.2655 112.135 53.5727 112.844 54.3703C 113.553 55.1236 114.484 55.5003 115.636 55.5003C 117.453 55.5003 119.048 54.9907 120.422 53.9715C 121.795 52.908 123.546 51.1134 125.673 48.5877C 126.204 47.9673 126.803 47.6571 127.467 47.6571ZM 119.292 6.58027C 118.273 6.58027 117.121 8.4192 115.836 12.0971C 114.55 15.7749 113.421 20.339 112.446 25.7893C 111.471 31.2397 110.939 36.4684 110.85 41.4756C 113.997 36.2912 116.5 31.1067 118.361 25.9223C 120.222 20.6935 121.153 15.93 121.153 11.6318C 121.153 8.26411 120.533 6.58027 119.292 6.58027Z"/>
<path id="path4_fill" d="M 130.951 62.8117C 128.425 62.8117 126.364 61.8147 124.769 59.8206C 123.218 57.8266 122.443 55.2122 122.443 51.9775C 122.443 48.4326 123.263 45.087 124.902 41.9409C 126.542 38.7505 128.713 36.2026 131.416 34.2972C 134.163 32.3475 137.066 31.3726 140.123 31.3726C 141.098 31.3726 141.74 31.572 142.051 31.9708C 142.405 32.3253 142.693 32.99 142.915 33.9648C 143.757 33.7876 144.687 33.699 145.706 33.699C 146.77 33.699 147.59 33.9648 148.166 34.4966C 148.742 35.0283 149.03 35.7816 149.03 36.7565C 149.03 37.7756 148.808 39.5481 148.365 42.0739C 147.878 44.7769 147.501 47.3691 147.235 49.8505C 146.969 52.2877 146.836 55.035 146.836 58.0925C 146.836 59.7763 146.482 60.9949 145.773 61.7482C 145.108 62.4572 144 62.8117 142.449 62.8117C 140.943 62.8117 139.813 62.4572 139.06 61.7482C 138.351 60.9949 137.996 59.7985 137.996 58.159L 138.063 57.0955C 136.689 60.9063 134.318 62.8117 130.951 62.8117ZM 133.543 56.0985C 134.784 56.0985 135.914 55.2344 136.933 53.5062C 137.952 51.7781 138.86 48.6984 139.658 44.2673L 140.921 37.5541C 139.104 37.5984 137.42 38.3074 135.869 39.681C 134.318 41.0104 133.078 42.7828 132.147 44.9984C 131.216 47.214 130.751 49.5625 130.751 52.044C 130.751 53.3733 130.995 54.3925 131.482 55.1015C 132.014 55.7661 132.701 56.0985 133.543 56.0985Z"/>
<path id="path5_fill" d="M 188.621 62.8117C 186.051 62.8117 183.149 62.5901 179.914 62.147C 178.142 61.9254 176.923 61.4602 176.259 60.7512C 175.594 60.0422 175.306 58.8901 175.394 57.2949C 175.705 52.908 176.436 47.502 177.588 41.0768C 178.74 34.6074 180.136 28.3816 181.775 22.3995C 182.085 21.2917 182.706 20.5163 183.636 20.0731C 184.567 19.63 185.786 19.4085 187.292 19.4085C 189.995 19.4085 191.347 20.1618 191.347 21.6684C 191.347 22.2887 191.214 22.9977 190.948 23.7953C 189.796 27.3403 188.644 32.1037 187.492 38.0858C 186.339 44.0236 185.52 49.6954 185.032 55.1015C 186.362 55.2344 187.868 55.3009 189.552 55.3009C 197.307 55.3009 203.089 52.9523 206.9 48.2553C 210.755 43.5583 212.683 37.2882 212.683 29.4451C 212.683 24.172 211.176 20.0953 208.163 17.2151C 205.15 14.3348 200.896 12.8947 195.401 12.8947C 191.856 12.8947 188.333 13.4486 184.833 14.5564C 181.377 15.6641 178.253 17.1264 175.461 18.9432C 174.885 19.342 174.265 19.5414 173.6 19.5414C 172.847 19.5414 172.248 19.2312 171.805 18.6109C 171.362 17.9462 171.141 17.1486 171.141 16.218C 171.141 15.1546 171.318 14.2905 171.672 13.6258C 172.027 12.9168 172.625 12.2743 173.467 11.6983C 176.524 9.61561 180.114 8.04255 184.235 6.97908C 188.356 5.87129 192.321 5.31739 196.132 5.31739C 201.538 5.31739 206.213 6.27009 210.157 8.17549C 214.101 10.0366 217.136 12.7839 219.263 16.4174C 221.39 20.051 222.453 24.4378 222.453 29.578C 222.453 36.269 221.124 42.1182 218.465 47.1254C 215.807 52.0883 211.929 55.9434 206.834 58.6907C 201.738 61.438 195.667 62.8117 188.621 62.8117Z"/>
<path id="path6_fill" d="M 260.801 42.0739C 261.377 42.0739 261.82 42.3619 262.13 42.9379C 262.44 43.514 262.595 44.2451 262.595 45.1314C 262.595 47.2583 261.953 48.5212 260.668 48.92C 258.009 49.8505 255.085 50.3823 251.894 50.5152C 251.052 54.2374 249.391 57.2284 246.909 59.4883C 244.428 61.7039 241.614 62.8117 238.468 62.8117C 235.809 62.8117 233.527 62.1692 231.622 60.8841C 229.761 59.5991 228.343 57.8931 227.368 55.7661C 226.393 53.6392 225.906 51.335 225.906 48.8535C 225.906 45.4858 226.548 42.4948 227.833 39.8804C 229.118 37.2217 230.891 35.1612 233.15 33.699C 235.41 32.1924 237.914 31.4391 240.661 31.4391C 244.029 31.4391 246.732 32.6133 248.77 34.9618C 250.853 37.266 252.072 40.1241 252.426 43.5361C 254.509 43.4032 256.99 42.9601 259.87 42.2068C 260.225 42.1182 260.535 42.0739 260.801 42.0739ZM 239 55.7661C 240.418 55.7661 241.636 55.1901 242.655 54.038C 243.719 52.8859 244.428 51.2242 244.782 49.0529C 243.409 48.1224 242.345 46.9038 241.592 45.3972C 240.883 43.8906 240.528 42.2954 240.528 40.6116C 240.528 39.9026 240.595 39.1936 240.728 38.4846L 240.395 38.4846C 238.623 38.4846 237.138 39.3487 235.942 41.0768C 234.79 42.7607 234.214 45.1535 234.214 48.2553C 234.214 50.6925 234.679 52.5535 235.61 53.8386C 236.585 55.1236 237.715 55.7661 239 55.7661Z"/>
<path id="path7_fill" d="M 290.789 42.0739C 291.365 42.0739 291.808 42.3619 292.118 42.9379C 292.429 43.514 292.584 44.2451 292.584 45.1314C 292.584 47.2583 291.941 48.5212 290.656 48.92C 287.997 49.8505 285.073 50.3823 281.882 50.5152C 281.041 54.2374 279.379 57.2284 276.897 59.4883C 274.416 61.7039 271.602 62.8117 268.456 62.8117C 265.797 62.8117 263.515 62.1692 261.61 60.8841C 259.749 59.5991 258.331 57.8931 257.356 55.7661C 256.381 53.6392 255.894 51.335 255.894 48.8535C 255.894 45.4858 256.536 42.4948 257.821 39.8804C 259.106 37.2217 260.879 35.1612 263.139 33.699C 265.399 32.1924 267.902 31.4391 270.649 31.4391C 274.017 31.4391 276.72 32.6133 278.758 34.9618C 280.841 37.266 282.06 40.1241 282.414 43.5361C 284.497 43.4032 286.978 42.9601 289.859 42.2068C 290.213 42.1182 290.523 42.0739 290.789 42.0739ZM 268.988 55.7661C 270.406 55.7661 271.624 55.1901 272.643 54.038C 273.707 52.8859 274.416 51.2242 274.77 49.0529C 273.397 48.1224 272.333 46.9038 271.58 45.3972C 270.871 43.8906 270.517 42.2954 270.517 40.6116C 270.517 39.9026 270.583 39.1936 270.716 38.4846L 270.384 38.4846C 268.611 38.4846 267.127 39.3487 265.93 41.0768C 264.778 42.7607 264.202 45.1535 264.202 48.2553C 264.202 50.6925 264.667 52.5535 265.598 53.8386C 266.573 55.1236 267.703 55.7661 268.988 55.7661Z"/>
<path id="path8_fill" d="M 313.732 40.6116C 314.707 40.6116 315.526 40.9661 316.191 41.675C 316.9 42.3397 317.255 43.1816 317.255 44.2008C 317.255 44.7769 317.122 45.3972 316.856 46.0619C 316.147 47.7014 315.15 49.0751 313.865 50.1829C 312.58 51.2907 311.162 51.8446 309.611 51.8446C 308.37 51.8446 307.307 51.4014 306.42 50.5152C 305.578 49.629 305.157 48.4326 305.157 46.926C 305.157 46.0841 305.202 45.1757 305.29 44.2008C 305.379 43.4918 305.423 43.0044 305.423 42.7385C 305.423 42.384 305.335 42.1182 305.157 41.9409C 305.025 41.7637 304.847 41.675 304.626 41.675C 304.005 41.675 303.163 42.4283 302.1 43.9349C 301.036 45.3972 299.973 47.3469 298.91 49.7841C 297.846 52.2212 296.982 54.7913 296.317 57.4943C 295.83 59.6212 295.276 61.0392 294.656 61.7482C 294.035 62.4572 293.016 62.8117 291.598 62.8117C 289.914 62.8117 288.718 61.9254 288.009 60.153C 287.344 58.3805 287.012 55.5446 287.012 51.6452C 287.012 45.8847 287.832 40.4122 289.471 35.2277C 289.87 33.9427 290.512 33.0121 291.399 32.4361C 292.329 31.8157 293.614 31.5055 295.254 31.5055C 296.14 31.5055 296.76 31.6163 297.115 31.8379C 297.469 32.0594 297.647 32.4804 297.647 33.1008C 297.647 33.8097 297.314 35.405 296.65 37.8864C 296.207 39.6589 295.852 41.2098 295.586 42.5391C 295.32 43.8685 295.099 45.508 294.922 47.4577C 296.384 43.6469 298.023 40.5451 299.84 38.1523C 301.657 35.7594 303.429 34.0535 305.157 33.0343C 306.886 32.0151 308.459 31.5055 309.877 31.5055C 311.162 31.5055 312.137 31.8822 312.801 32.6355C 313.51 33.3445 313.865 34.4079 313.865 35.8259C 313.865 36.6678 313.621 38.2631 313.134 40.6116L 313.732 40.6116Z"/>
</defs>
</svg>
